<svg width="40" height="40" viewBox="0 0 40 40" fill="none" xmlns="http://www.w3.org/2000/svg">
<path fill-rule="evenodd" clip-rule="evenodd" d="M12.4417 1.77675C14.3967 1.68675 15.0201 1.66675 20.0001 1.66675C24.9801 1.66675 25.6034 1.68841 27.5567 1.77675C29.5101 1.86508 30.8434 2.17675 32.0101 2.62841C33.2317 3.09008 34.3401 3.81175 35.2567 4.74508C36.1901 5.66008 36.9101 6.76675 37.3701 7.99008C37.8234 9.15675 38.1334 10.4901 38.2234 12.4401C38.3134 14.3984 38.3334 15.0217 38.3334 20.0001C38.3334 24.9801 38.3117 25.6034 38.2234 27.5584C38.1351 29.5084 37.8234 30.8417 37.3701 32.0084C36.9101 33.2319 36.1889 34.3404 35.2567 35.2567C34.3401 36.1901 33.2317 36.9101 32.0101 37.3701C30.8434 37.8234 29.5101 38.1334 27.5601 38.2234C25.6034 38.3134 24.9801 38.3334 20.0001 38.3334C15.0201 38.3334 14.3967 38.3117 12.4417 38.2234C10.4917 38.1351 9.15841 37.8234 7.99175 37.3701C6.76828 36.91 5.65978 36.1888 4.74341 35.2567C3.81071 34.3412 3.08894 33.2332 2.62841 32.0101C2.17675 30.8434 1.86675 29.5101 1.77675 27.5601C1.68675 25.6017 1.66675 24.9784 1.66675 20.0001C1.66675 15.0201 1.68841 14.3967 1.77675 12.4434C1.86508 10.4901 2.17675 9.15675 2.62841 7.99008C3.08962 6.76688 3.81195 5.65894 4.74508 4.74341C5.66015 3.81092 6.76753 3.08915 7.99008 2.62841C9.15675 2.17675 10.4901 1.86675 12.4401 1.77675H12.4417ZM27.4084 5.07675C25.4751 4.98841 24.8951 4.97008 20.0001 4.97008C15.1051 4.97008 14.5251 4.98841 12.5917 5.07675C10.8034 5.15841 9.83341 5.45675 9.18675 5.70841C8.33175 6.04175 7.72008 6.43675 7.07841 7.07841C6.47016 7.67017 6.00205 8.39055 5.70841 9.18675C5.45675 9.83341 5.15841 10.8034 5.07675 12.5917C4.98841 14.5251 4.97008 15.1051 4.97008 20.0001C4.97008 24.8951 4.98841 25.4751 5.07675 27.4084C5.15841 29.1967 5.45675 30.1667 5.70841 30.8134C6.00175 31.6084 6.47008 32.3301 7.07841 32.9217C7.67008 33.5301 8.39175 33.9984 9.18675 34.2917C9.83341 34.5434 10.8034 34.8417 12.5917 34.9234C14.5251 35.0117 15.1034 35.0301 20.0001 35.0301C24.8967 35.0301 25.4751 35.0117 27.4084 34.9234C29.1967 34.8417 30.1667 34.5434 30.8134 34.2917C31.6684 33.9584 32.2801 33.5634 32.9217 32.9217C33.5301 32.3301 33.9984 31.6084 34.2917 30.8134C34.5434 30.1667 34.8417 29.1967 34.9234 27.4084C35.0117 25.4751 35.0301 24.8951 35.0301 20.0001C35.0301 15.1051 35.0117 14.5251 34.9234 12.5917C34.8417 10.8034 34.5434 9.83341 34.2917 9.18675C33.9584 8.33175 33.5634 7.72008 32.9217 7.07841C32.33 6.4702 31.6096 6.0021 30.8134 5.70841C30.1667 5.45675 29.1967 5.15841 27.4084 5.07675ZM17.6584 25.6517C18.9662 26.1961 20.4224 26.2696 21.7783 25.8596C23.1342 25.4496 24.3057 24.5816 25.0928 23.4038C25.8798 22.226 26.2335 20.8115 26.0935 19.4019C25.9535 17.9923 25.3284 16.675 24.3251 15.6751C23.6855 15.0359 22.9121 14.5464 22.0606 14.242C21.2092 13.9376 20.3008 13.8257 19.4009 13.9144C18.501 14.0032 17.632 14.2904 16.8564 14.7553C16.0808 15.2202 15.418 15.8513 14.9156 16.6032C14.4132 17.355 14.0837 18.2089 13.9509 19.1033C13.8182 19.9978 13.8853 20.9106 14.1476 21.7759C14.41 22.6413 14.8609 23.4378 15.4679 24.1079C16.075 24.7781 16.8231 25.3054 17.6584 25.6517ZM13.3367 13.3367C14.2118 12.4617 15.2506 11.7676 16.3939 11.294C17.5372 10.8204 18.7626 10.5767 20.0001 10.5767C21.2376 10.5767 22.463 10.8204 23.6062 11.294C24.7495 11.7676 25.7884 12.4617 26.6634 13.3367C27.5385 14.2118 28.2326 15.2506 28.7061 16.3939C29.1797 17.5372 29.4235 18.7626 29.4235 20.0001C29.4235 21.2376 29.1797 22.463 28.7061 23.6062C28.2326 24.7495 27.5385 25.7884 26.6634 26.6634C24.8962 28.4306 22.4993 29.4235 20.0001 29.4235C17.5008 29.4235 15.104 28.4306 13.3367 26.6634C11.5695 24.8962 10.5767 22.4993 10.5767 20.0001C10.5767 17.5008 11.5695 15.104 13.3367 13.3367ZM31.5134 11.9801C31.7303 11.7755 31.9038 11.5295 32.0239 11.2567C32.144 10.9839 32.2081 10.6897 32.2124 10.3916C32.2168 10.0936 32.1613 9.79766 32.0492 9.52143C31.9371 9.2452 31.7708 8.99427 31.56 8.78348C31.3492 8.57269 31.0983 8.40634 30.8221 8.29428C30.5458 8.18221 30.2499 8.12671 29.9519 8.13105C29.6538 8.1354 29.3596 8.1995 29.0868 8.31957C28.8139 8.43965 28.568 8.61324 28.3634 8.83008C27.9656 9.2518 27.7478 9.81195 27.7562 10.3916C27.7647 10.9713 27.9987 11.5249 28.4087 11.9348C28.8186 12.3448 29.3722 12.5788 29.9519 12.5872C30.5315 12.5957 31.0917 12.3779 31.5134 11.9801Z" fill="white"/>
</svg>
