<svg width="40" height="40" viewBox="0 0 40 40" fill="none" xmlns="http://www.w3.org/2000/svg">
<path fill-rule="evenodd" clip-rule="evenodd" d="M1.66675 4.73009C1.66675 3.91764 1.98949 3.13847 2.56398 2.56398C3.13846 1.9895 3.91764 1.66675 4.73008 1.66675H35.2667C35.6694 1.66609 36.0682 1.74486 36.4403 1.89853C36.8125 2.0522 37.1506 2.27777 37.4355 2.56231C37.7203 2.84686 37.9463 3.18479 38.1004 3.55677C38.2544 3.92875 38.3336 4.32746 38.3334 4.73009V35.2668C38.3339 35.6695 38.2549 36.0683 38.101 36.4404C37.9472 36.8126 37.7215 37.1508 37.4368 37.4356C37.1521 37.7204 36.8141 37.9463 36.442 38.1004C36.0699 38.2545 35.6711 38.3336 35.2684 38.3334H4.73008C4.32766 38.3334 3.92918 38.2541 3.55741 38.1001C3.18564 37.946 2.84787 37.7202 2.56339 37.4356C2.27891 37.151 2.0533 36.8131 1.89945 36.4412C1.7456 36.0694 1.66653 35.6708 1.66675 35.2684V4.73009ZM16.1801 15.6468H21.1451V18.1401C21.8617 16.7068 23.6951 15.4168 26.4501 15.4168C31.7317 15.4168 32.9834 18.2718 32.9834 23.5101V33.2134H27.6384V24.7034C27.6384 21.7201 26.9217 20.0368 25.1017 20.0368C22.5767 20.0368 21.5267 21.8518 21.5267 24.7034V33.2134H16.1801V15.6468ZM7.01342 32.9851H12.3601V15.4168H7.01342V32.9834V32.9851ZM13.1251 9.68675C13.1352 10.1445 13.0537 10.5997 12.8855 11.0256C12.7173 11.4515 12.4657 11.8395 12.1455 12.1668C11.8253 12.4941 11.4429 12.7542 11.0208 12.9318C10.5988 13.1093 10.1455 13.2008 9.68758 13.2008C9.22968 13.2008 8.7764 13.1093 8.35432 12.9318C7.93225 12.7542 7.5499 12.4941 7.2297 12.1668C6.9095 11.8395 6.6579 11.4515 6.48968 11.0256C6.32146 10.5997 6.24 10.1445 6.25008 9.68675C6.26987 8.78818 6.64072 7.93307 7.28322 7.30456C7.92572 6.67605 8.78879 6.32411 9.68758 6.32411C10.5864 6.32411 11.4494 6.67605 12.0919 7.30456C12.7344 7.93307 13.1053 8.78818 13.1251 9.68675Z" fill="white"/>
</svg>
