<svg width="100" height="100" viewBox="0 0 100 100" fill="none" xmlns="http://www.w3.org/2000/svg">
<path d="M50 57.7313C54.3147 57.7313 57.8125 54.2335 57.8125 49.9188C57.8125 45.604 54.3147 42.1063 50 42.1063C45.6853 42.1063 42.1875 45.604 42.1875 49.9188C42.1875 54.2335 45.6853 57.7313 50 57.7313Z" fill="#00D8FF"/>
<path d="M50 67.8313C40.6098 68.0584 31.2431 66.7927 22.25 64.0813C18.0957 62.7644 14.221 60.6898 10.8219 57.9625C9.52478 57.0308 8.4446 55.8296 7.65544 54.4411C6.86629 53.0527 6.38684 51.51 6.25 49.9188C6.25 44.7532 11.925 39.6907 21.4312 36.3782C30.6648 33.443 40.3123 32.0205 50 32.1657C59.5585 32.0321 69.0767 33.4289 78.1937 36.3032C82.1946 37.5787 85.9379 39.5529 89.25 42.1344C90.5249 43.0227 91.5889 44.1804 92.3666 45.5257C93.1442 46.8709 93.6165 48.3707 93.75 49.9188C93.75 55.2875 87.4062 60.7282 77.1875 64.1094C68.3685 66.7325 59.1995 67.9877 50 67.8313ZM50 35.9032C40.7316 35.7793 31.5026 37.1316 22.6594 39.9094C13.9094 42.9625 9.9875 47.1375 9.9875 49.9094C9.9875 52.8094 14.2031 57.3688 23.4594 60.5344C32.0627 63.1152 41.0207 64.3166 50 64.0938C58.8013 64.2512 67.5748 63.0603 76.0156 60.5625C85.625 57.3782 90 52.8125 90 49.9188C89.8423 48.9258 89.4804 47.9762 88.9372 47.1301C88.3939 46.284 87.6811 45.5598 86.8438 45.0032C83.8805 42.713 80.5366 40.9633 76.9656 39.8344C68.2438 37.0962 59.1406 35.769 50 35.9032Z" fill="#00D8FF"/>
<path d="M32.2502 88.8843C30.7924 88.9178 29.3518 88.5641 28.0752 87.8593C23.6002 85.2781 22.0502 77.8343 23.9284 67.9437C25.9991 58.4783 29.5871 49.4102 34.5534 41.0905C39.2119 32.744 45.1758 25.1965 52.219 18.7343C55.3226 15.9052 58.903 13.6485 62.794 12.0687C64.2014 11.4091 65.7366 11.0672 67.2909 11.0672C68.8451 11.0672 70.3804 11.4091 71.7877 12.0687C76.4409 14.7499 77.9815 22.9624 75.8096 33.503C73.6749 42.4548 70.1801 51.0263 65.4471 58.9187C60.9525 67.1667 55.1764 74.6484 48.3346 81.0843C45.1183 84.0243 41.3857 86.3435 37.3252 87.9249C35.6997 88.5283 33.9839 88.8526 32.2502 88.8843ZM37.7909 42.9468C33.0537 50.9134 29.6148 59.5834 27.6034 68.6312C25.8752 77.7406 27.5346 83.2187 29.9471 84.6124C32.4471 86.0593 38.5159 84.6874 45.8846 78.2499C52.416 72.0841 57.9291 64.9224 62.219 57.0312C66.7532 49.4859 70.1055 41.291 72.1596 32.7312C74.2034 22.8093 72.4377 16.7343 69.9315 15.2905C68.9922 14.9306 67.9884 14.7695 66.9836 14.8174C65.9788 14.8653 64.9949 15.1211 64.094 15.5687C60.6305 16.9979 57.4463 19.0269 54.6877 21.5624C47.9586 27.7524 42.2618 34.9778 37.8127 42.9655L37.7909 42.9468Z" fill="#00D8FF"/>
<path d="M67.7406 88.9249C63.5063 88.9249 58.1281 86.3624 52.5281 81.5468C45.3616 75.0258 39.2968 67.3886 34.5688 58.9312C29.6648 50.726 26.1052 41.7891 24.025 32.4593C23.1229 28.3546 22.9557 24.1224 23.5313 19.9593C23.6643 18.415 24.1346 16.9186 24.9089 15.5758C25.6832 14.2329 26.7426 13.0763 28.0125 12.1874C32.6594 9.49681 40.5438 12.2624 48.5906 19.4062C55.28 25.7255 60.9606 33.0334 65.4344 41.0749C70.3353 49.0885 73.9322 57.8297 76.0906 66.9718C77.0316 71.2271 77.1768 75.6199 76.5188 79.9281C76.3622 81.5168 75.8639 83.053 75.0581 84.4311C74.2522 85.8093 73.1579 86.9968 71.85 87.9124C70.5943 88.6084 69.176 88.9579 67.7406 88.9249ZM37.8031 57.0499C42.3389 65.1325 48.1322 72.4417 54.9656 78.7031C61.9938 84.7499 67.5688 86.0499 69.9656 84.6405C72.4656 83.1874 74.3094 77.2562 72.4094 67.6593C70.3278 58.931 66.8778 50.5871 62.1875 42.9374C57.9182 35.2409 52.4961 28.2432 46.1094 22.1874C38.5344 15.4624 32.3906 13.9593 29.8875 15.4093C29.1073 16.0433 28.4671 16.8322 28.0072 17.7261C27.5473 18.6201 27.2778 19.5997 27.2156 20.6031C26.7188 24.3158 26.8806 28.0871 27.6938 31.7437C29.6947 40.666 33.1086 49.2112 37.8063 57.0562L37.8031 57.0499Z" fill="#00D8FF"/>
</svg>
