<svg width="100" height="100" viewBox="0 0 100 100" fill="none" xmlns="http://www.w3.org/2000/svg">
<path d="M51.9374 93.7501L49.5906 92.9719C49.5906 92.9719 49.9031 81.0969 45.6062 80.2626C42.7937 76.9876 46.0218 -59.5531 56.3031 79.7969C54.3524 80.7864 52.8598 82.4917 52.1374 84.5563C51.7503 87.6055 51.6833 90.6869 51.9374 93.7501Z" fill="url(#paint0_linear_16_44)"/>
<path d="M53.2062 82.2782C59.4549 77.5743 64.2403 71.1936 67.0062 63.8778C69.7722 56.5619 70.405 48.6113 68.8312 40.95C64.2375 20.6844 53.3594 14.0219 52.1875 11.4781C51.1764 9.89418 50.3134 8.22044 49.6094 6.47815L50.475 62.9438C50.475 62.9438 48.6812 80.2 53.2062 82.2782Z" fill="url(#paint1_linear_16_44)"/>
<path d="M48.3972 83.0281C48.3972 83.0281 29.269 70 30.3753 46.9531C30.4785 40.0051 32.0716 33.1602 35.0469 26.8807C38.0222 20.6012 42.3105 15.0333 47.6222 10.5531C48.2429 10.0258 48.7361 9.36461 49.0646 8.61931C49.3931 7.87402 49.5485 7.06396 49.519 6.25C50.7097 8.8125 50.5159 44.5094 50.6409 48.6844C51.1253 64.925 49.7378 79.9625 48.3972 83.0281Z" fill="url(#paint2_linear_16_44)"/>
<defs>
<linearGradient id="paint0_linear_16_44" x1="36.1613" y1="50.7885" x2="63.1353" y2="59.942" gradientUnits="userSpaceOnUse">
<stop offset="0.231" stop-color="#999875"/>
<stop offset="0.563" stop-color="#9B9977"/>
<stop offset="0.683" stop-color="#A09F7E"/>
<stop offset="0.768" stop-color="#A9A889"/>
<stop offset="0.837" stop-color="#B7B69A"/>
<stop offset="0.896" stop-color="#C9C7B0"/>
<stop offset="0.948" stop-color="#DEDDCB"/>
<stop offset="0.994" stop-color="#F8F6EB"/>
<stop offset="1" stop-color="#FBF9EF"/>
</linearGradient>
<linearGradient id="paint1_linear_16_44" x1="46.053" y1="6.07467" x2="57.9781" y2="80.5401" gradientUnits="userSpaceOnUse">
<stop stop-color="#48A547"/>
<stop offset="1" stop-color="#3F9143"/>
</linearGradient>
<linearGradient id="paint2_linear_16_44" x1="28.7299" y1="49.2344" x2="60.7318" y2="38.517" gradientUnits="userSpaceOnUse">
<stop stop-color="#41A247"/>
<stop offset="0.352" stop-color="#4BA74B"/>
<stop offset="0.956" stop-color="#67B554"/>
<stop offset="1" stop-color="#69B655"/>
</linearGradient>
</defs>
</svg>
