<svg width="100" height="100" viewBox="0 0 100 100" fill="none" xmlns="http://www.w3.org/2000/svg">
<path d="M49.3905 80.1512C49.0521 80.1512 48.736 80.061 48.4425 79.903L45.4403 78.1198C44.9888 77.8713 45.2146 77.7811 45.3501 77.736C45.9595 77.5328 46.0724 77.4875 46.7044 77.1266C46.7722 77.0813 46.8626 77.1039 46.9302 77.149L49.2327 78.526C49.3229 78.5711 49.4358 78.5711 49.5034 78.526L58.5103 73.3116C58.6005 73.2664 58.6458 73.176 58.6458 73.0633V62.6571C58.6458 62.544 58.6005 62.4539 58.5103 62.4086L49.5034 57.2168C49.4132 57.1715 49.3003 57.1715 49.2327 57.2168L40.2259 62.4086C40.1356 62.4537 40.0903 62.5666 40.0903 62.6569V73.0631C40.0903 73.1535 40.1356 73.2662 40.2259 73.3116L42.6864 74.7336C44.0183 75.4108 44.8534 74.6207 44.8534 73.8307V63.5598C44.8534 63.4244 44.9663 63.2889 45.1243 63.2889H46.2755C46.411 63.2889 46.5464 63.4018 46.5464 63.5598V73.8307C46.5464 75.6139 45.5757 76.6524 43.8827 76.6524C43.3636 76.6524 42.9573 76.6524 41.806 76.0879L39.4358 74.7336C38.8489 74.3951 38.4878 73.7629 38.4878 73.0858V62.6795C38.4878 62.0024 38.8489 61.3701 39.4358 61.0317L48.4425 55.8172C49.0069 55.5012 49.7745 55.5012 50.3388 55.8172L59.3454 61.0317C59.9323 61.3701 60.2936 62.0024 60.2936 62.6795V73.0858C60.2936 73.7629 59.9323 74.3951 59.3454 74.7336L50.3388 79.9481C50.0452 80.0836 49.7067 80.1512 49.3907 80.1512H49.3905ZM52.1671 72.9955C48.2169 72.9955 47.4042 71.1897 47.4042 69.6547C47.4042 69.5192 47.5171 69.3838 47.6751 69.3838H48.8489C48.9843 69.3838 49.0972 69.474 49.0972 69.6096C49.2778 70.8059 49.797 71.3928 52.1897 71.3928C54.0858 71.3928 54.8987 70.9639 54.8987 69.9481C54.8987 69.3612 54.6728 68.9324 51.7157 68.6389C49.2552 68.3905 47.7202 67.8489 47.7202 65.885C47.7202 64.0565 49.2554 62.9729 51.8286 62.9729C54.7179 62.9729 56.1401 63.9662 56.3208 66.133C56.3208 66.201 56.2981 66.2686 56.253 66.3364C56.2077 66.3815 56.1401 66.4266 56.0724 66.4266H54.8985C54.7856 66.4266 54.6728 66.3364 54.6503 66.2235C54.3794 64.9821 53.6796 64.5756 51.8286 64.5756C49.7519 64.5756 49.5034 65.2981 49.5034 65.8397C49.5034 66.4944 49.797 66.6975 52.596 67.0586C55.3726 67.4199 56.6819 67.9391 56.6819 69.8803C56.6593 71.8668 55.0341 72.9955 52.1671 72.9955Z" fill="#539E43"/>
<path d="M21.4447 39.4516C21.4447 39.0454 21.2189 38.6614 20.8578 38.4583L11.2867 32.9504C11.1285 32.86 10.948 32.8149 10.7676 32.7922H10.6771C10.4967 32.7922 10.316 32.86 10.158 32.9504L0.586914 38.4583C0.225586 38.6614 0 39.0452 0 39.4516L0.0226562 54.2596C0.0226562 54.4628 0.135547 54.6659 0.316016 54.7563C0.49668 54.8692 0.722266 54.8692 0.880469 54.7563L6.56895 51.5057C6.93008 51.3026 7.15586 50.9188 7.15586 50.5126V43.5825C7.15586 43.1762 7.38145 42.7924 7.74277 42.5893L10.158 41.1897C10.3387 41.0768 10.5418 41.0315 10.7449 41.0315C10.948 41.0315 11.1512 41.0768 11.3094 41.1897L13.7246 42.5893C14.0859 42.7924 14.3115 43.176 14.3115 43.5825V50.5126C14.3115 50.9188 14.5373 51.3026 14.8984 51.5057L20.5869 54.7563C20.7676 54.8692 20.9932 54.8692 21.1738 54.7563C21.3545 54.6659 21.4674 54.4628 21.4674 54.2596L21.4447 39.4516Z" fill="#333333"/>
<path d="M67.4491 19.0678C67.2687 18.9774 67.0429 18.9774 66.8847 19.0678C66.7042 19.1807 66.5913 19.3612 66.5913 19.5643V34.2372C66.5913 34.3725 66.5237 34.5079 66.3882 34.5983C66.2528 34.6659 66.1173 34.6659 65.9819 34.5983L63.5892 33.2213C63.4137 33.1215 63.2153 33.0689 63.0135 33.0689C62.8116 33.0689 62.6132 33.1215 62.4378 33.2213L52.8667 38.7518C52.5056 38.9549 52.2798 39.3387 52.2798 39.745V50.7832C52.2798 51.1895 52.5056 51.5735 52.8667 51.7766L62.4378 57.3071C62.6132 57.4069 62.8116 57.4595 63.0135 57.4595C63.2153 57.4595 63.4137 57.4069 63.5892 57.3071L73.1603 51.7766C73.5214 51.5735 73.7472 51.1897 73.7472 50.7832V23.2665C73.7472 22.8375 73.5214 22.454 73.1603 22.2506L67.4493 19.0678H67.4491ZM66.5688 47.1491C66.5688 47.262 66.5237 47.3522 66.4333 47.3973L63.1603 49.2934C63.1145 49.3157 63.0643 49.3273 63.0135 49.3273C62.9626 49.3273 62.9124 49.3157 62.8667 49.2934L59.5937 47.3973C59.5032 47.3522 59.4581 47.2393 59.4581 47.1491V43.3567C59.4581 43.2438 59.5032 43.1536 59.5937 43.1084L62.8667 41.2121C62.9124 41.1898 62.9626 41.1783 63.0135 41.1783C63.0643 41.1783 63.1145 41.1898 63.1603 41.2121L66.4333 43.1084C66.5237 43.1534 66.5688 43.2664 66.5688 43.3567V47.1491Z" fill="#333333"/>
<path d="M99.3003 43.2665C99.6616 43.0633 99.8647 42.6796 99.8647 42.2731V39.587C99.8647 39.1807 99.639 38.7969 99.3003 38.5938L89.797 33.086C89.6216 32.9862 89.4232 32.9337 89.2214 32.9337C89.0196 32.9337 88.8212 32.9862 88.6458 33.086L79.0747 38.6163C78.7134 38.8194 78.4878 39.2032 78.4878 39.6096V50.6479C78.4878 51.0542 78.7134 51.4379 79.0747 51.6411L88.578 57.0587C88.9394 57.2618 89.3681 57.2618 89.7067 57.0587L95.4628 53.8536C95.6435 53.7631 95.7563 53.56 95.7563 53.3569C95.7563 53.1538 95.6435 52.9506 95.4628 52.8602L85.8466 47.3297C85.6661 47.2171 85.5532 47.0364 85.5532 46.8333V43.3796C85.5532 43.1764 85.6661 42.9733 85.8466 42.8829L88.8489 41.1673C88.9368 41.1119 89.0385 41.0826 89.1424 41.0826C89.2462 41.0826 89.348 41.1119 89.4358 41.1673L92.438 42.8829C92.6187 42.9958 92.7315 43.1762 92.7315 43.3796V46.0883C92.7315 46.2915 92.8444 46.4946 93.0249 46.5848C93.2056 46.6977 93.4312 46.6977 93.6118 46.5848L99.3003 43.2665V43.2665Z" fill="#333333"/>
<path d="M89.0745 42.7473C89.1079 42.7253 89.1472 42.7135 89.1873 42.7135C89.2274 42.7135 89.2666 42.7253 89.3 42.7473L91.1286 43.8082C91.1963 43.8532 91.2415 43.9209 91.2415 44.0114V46.1332C91.2415 46.2235 91.1963 46.2912 91.1286 46.3364L89.3 47.3973C89.2666 47.4193 89.2274 47.4311 89.1873 47.4311C89.1472 47.4311 89.1079 47.4193 89.0745 47.3973L87.2459 46.3364C87.1782 46.2912 87.1331 46.2235 87.1331 46.1332V44.0114C87.1331 43.9209 87.1782 43.8532 87.2459 43.8082L89.0745 42.7473V42.7473Z" fill="#539E43"/>
<mask id="mask0_16_21" style="mask-type:alpha" maskUnits="userSpaceOnUse" x="26" y="32" width="22" height="26">
<path d="M37.4492 33.1311C37.2738 33.0313 37.0754 32.9788 36.8736 32.9788C36.6718 32.9788 36.4734 33.0313 36.298 33.1311L26.7947 38.6161C26.4333 38.8192 26.2302 39.203 26.2302 39.6092V50.6026C26.2302 51.0088 26.456 51.3926 26.7947 51.5958L36.298 57.0811C36.4734 57.181 36.6718 57.2335 36.8736 57.2335C37.0754 57.2335 37.2738 57.181 37.4492 57.0811L46.9527 51.5958C47.3138 51.3926 47.5171 51.0088 47.5171 50.6026V39.6094C47.5171 39.2032 47.2912 38.8194 46.9527 38.6163L37.4492 33.1311Z" fill="white"/>
</mask>
<g mask="url(#mask0_16_21)">
<path d="M37.4492 33.1311C37.2738 33.0313 37.0754 32.9788 36.8736 32.9788C36.6718 32.9788 36.4734 33.0313 36.298 33.1311L26.7947 38.6161C26.4333 38.8192 26.2302 39.203 26.2302 39.6092V50.6026C26.2302 51.0088 26.456 51.3926 26.7947 51.5958L36.298 57.0811C36.4734 57.181 36.6718 57.2335 36.8736 57.2335C37.0754 57.2335 37.2738 57.181 37.4492 57.0811L46.9527 51.5958C47.3138 51.3926 47.5171 51.0088 47.5171 50.6026V39.6094C47.5171 39.2032 47.2912 38.8194 46.9527 38.6163L37.4492 33.1311Z" fill="url(#paint0_linear_16_21)"/>
<path d="M46.9751 38.6163L37.4267 33.1311C37.3329 33.0838 37.2345 33.0459 37.1332 33.0182L26.4333 51.3479C26.522 51.4561 26.629 51.5479 26.7496 51.6188L36.298 57.1042C36.5689 57.2622 36.8849 57.3073 37.1783 57.2169L47.2236 38.8423C47.1558 38.752 47.0654 38.6841 46.9751 38.6165V38.6163Z" fill="url(#paint1_linear_16_21)"/>
<path fill-rule="evenodd" clip-rule="evenodd" d="M46.9978 51.5959C47.2687 51.4379 47.4718 51.167 47.5622 50.8736L37.0878 32.9955C36.8169 32.9504 36.5233 32.9729 36.2753 33.1309L26.7944 38.5938L37.02 57.2393C37.1687 57.2149 37.3132 57.1693 37.4489 57.1039L46.9976 51.5961L46.9978 51.5959Z" fill="url(#paint2_linear_16_21)"/>
<path fill-rule="evenodd" clip-rule="evenodd" d="M46.9976 51.5959L37.4716 57.0813C37.3372 57.1499 37.1922 57.1956 37.0427 57.2166L37.2234 57.5553L47.7876 51.4381V51.3026L47.5167 50.851C47.4716 51.167 47.2685 51.4379 46.9976 51.5959V51.5959Z" fill="url(#paint3_linear_16_21)"/>
<path fill-rule="evenodd" clip-rule="evenodd" d="M46.9976 51.5959L37.4716 57.0813C37.3372 57.1499 37.1922 57.1956 37.0427 57.2166L37.2234 57.5553L47.7876 51.4381V51.3026L47.5167 50.851C47.4716 51.167 47.2685 51.4379 46.9976 51.5959V51.5959Z" fill="url(#paint4_linear_16_21)"/>
</g>
<defs>
<linearGradient id="paint0_linear_16_21" x1="40.7453" y1="37.2202" x2="30.3288" y2="53.5877" gradientUnits="userSpaceOnUse">
<stop stop-color="#41873F"/>
<stop offset="0.3288" stop-color="#418B3D"/>
<stop offset="0.6352" stop-color="#419637"/>
<stop offset="0.9319" stop-color="#3FA92D"/>
<stop offset="1" stop-color="#3FAE2A"/>
</linearGradient>
<linearGradient id="paint1_linear_16_21" x1="35.4307" y1="46.3938" x2="61.5185" y2="32.2202" gradientUnits="userSpaceOnUse">
<stop offset="0.1376" stop-color="#41873F"/>
<stop offset="0.4032" stop-color="#54A044"/>
<stop offset="0.7136" stop-color="#66B848"/>
<stop offset="0.9081" stop-color="#6CC04A"/>
</linearGradient>
<linearGradient id="paint2_linear_16_21" x1="25.8829" y1="45.1064" x2="47.8735" y2="45.1064" gradientUnits="userSpaceOnUse">
<stop offset="0.09192" stop-color="#6CC04A"/>
<stop offset="0.2864" stop-color="#66B848"/>
<stop offset="0.5968" stop-color="#54A044"/>
<stop offset="0.8624" stop-color="#41873F"/>
</linearGradient>
<linearGradient id="paint3_linear_16_21" x1="25.8829" y1="54.2216" x2="47.8733" y2="54.2216" gradientUnits="userSpaceOnUse">
<stop offset="0.09192" stop-color="#6CC04A"/>
<stop offset="0.2864" stop-color="#66B848"/>
<stop offset="0.5968" stop-color="#54A044"/>
<stop offset="0.8624" stop-color="#41873F"/>
</linearGradient>
<linearGradient id="paint4_linear_16_21" x1="51.077" y1="36.7003" x2="45.506" y2="65.8923" gradientUnits="userSpaceOnUse">
<stop stop-color="#41873F"/>
<stop offset="0.3288" stop-color="#418B3D"/>
<stop offset="0.6352" stop-color="#419637"/>
<stop offset="0.9319" stop-color="#3FA92D"/>
<stop offset="1" stop-color="#3FAE2A"/>
</linearGradient>
</defs>
</svg>
