<svg width="100" height="100" viewBox="0 0 100 100" fill="none" xmlns="http://www.w3.org/2000/svg">
<path d="M0.650781 58.5838V47.4547H14.5461V46.8037H0.650781V36.6508H15.4246V36H0V59.2346H15.5547V58.5838H0.650977H0.650781ZM28.0834 42.5082L22.3236 50.0904L16.6938 42.5084H15.8477L21.933 50.5787L15.2617 59.2344H16.0428L22.3232 51.0664L28.6363 59.2344H29.4498L22.7463 50.5783L28.8641 42.508H28.0832L28.0834 42.5082ZM31.4025 64.9619V54.5488H31.4676C31.8582 56.0674 32.6283 57.2877 33.7781 58.2098C34.9279 59.1316 36.3922 59.5928 38.1711 59.5928C39.3209 59.5928 40.3406 59.3596 41.2301 58.8932C42.1195 58.4268 42.8625 57.7922 43.4592 56.9895C44.0557 56.1867 44.5113 55.2539 44.826 54.1908C45.1404 53.1279 45.2979 52.0105 45.2979 50.8393C45.2979 49.5809 45.135 48.4201 44.8096 47.3572C44.4842 46.2941 44.0123 45.3721 43.3941 44.5912C42.7758 43.8102 42.0273 43.2025 41.1486 42.7689C40.2701 42.335 39.2775 42.118 38.1711 42.118C37.325 42.118 36.5387 42.2428 35.8119 42.4922C35.0852 42.7418 34.4398 43.0941 33.8758 43.5498C33.3084 44.009 32.8146 44.5522 32.4113 45.1605C31.9992 45.7789 31.6846 46.4568 31.4676 47.1945H31.4025V42.5082H30.7518V64.9619H31.4025V64.9619ZM38.1711 58.9742C36.132 58.9742 34.4939 58.2746 33.2574 56.8754C32.0209 55.4762 31.4025 53.4639 31.4025 50.8389C31.4025 49.7541 31.5545 48.7236 31.8582 47.7475C32.1619 46.7713 32.6012 45.9143 33.176 45.1768C33.751 44.4391 34.4615 43.8533 35.3074 43.4195C36.1535 42.9855 37.1082 42.7686 38.1711 42.7686C39.2559 42.7686 40.2051 42.9855 41.0186 43.4195C41.832 43.8533 42.5047 44.4445 43.0361 45.193C43.5676 45.9414 43.9689 46.7984 44.2402 47.7637C44.5113 48.7291 44.6469 49.7541 44.6469 50.8389C44.6469 51.8152 44.5223 52.7861 44.2727 53.7514C44.0232 54.7168 43.6381 55.5846 43.1174 56.3549C42.5969 57.1248 41.9299 57.7539 41.1162 58.2422C40.3025 58.7303 39.3209 58.9742 38.1711 58.9742V58.9742ZM48.8773 59.2346V49.765C48.8773 48.8539 49.0074 47.9643 49.268 47.0967C49.5281 46.2289 49.9295 45.4641 50.4719 44.8025C51.0143 44.1408 51.7029 43.6201 52.5383 43.2404C53.3734 42.8607 54.366 42.7035 55.5158 42.7686V42.1178C54.5178 42.0963 53.6447 42.2045 52.8963 42.4432C52.1477 42.6818 51.5023 43.0072 50.96 43.4195C50.4176 43.8316 49.9838 44.3143 49.6584 44.8676C49.3333 45.42 49.0919 46.0177 48.9424 46.641H48.8773V42.5082H48.2266V59.2348H48.8773V59.2346ZM56.3293 51.0016H70.3221C70.3656 49.8518 70.2518 48.7455 69.9805 47.6824C69.7094 46.6193 69.2754 45.6756 68.6789 44.8514C68.0822 44.027 67.3121 43.3652 66.3684 42.8662C65.4246 42.3672 64.302 42.1178 63.0004 42.1178C62.0674 42.1178 61.1563 42.3131 60.2668 42.7037C59.3773 43.0941 58.5963 43.6635 57.9238 44.4119C57.2514 45.1604 56.709 46.077 56.2969 47.1619C55.8848 48.2465 55.6785 49.483 55.6785 50.8715C55.6785 52.108 55.8195 53.2633 56.1016 54.3371C56.3836 55.4109 56.8174 56.3439 57.4031 57.1357C57.9891 57.9275 58.743 58.5404 59.6648 58.9742C60.5867 59.4082 61.6986 59.6143 63.0004 59.5926C64.9094 59.5926 66.5148 59.0555 67.8164 57.9818C69.1182 56.9078 69.8883 55.3947 70.127 53.4422H69.4762C69.1941 55.2863 68.4727 56.6693 67.3121 57.5912C66.1514 58.5133 64.6926 58.9742 62.9352 58.9742C61.742 58.9742 60.7332 58.7682 59.9088 58.3561C59.0846 57.9439 58.4119 57.3797 57.8912 56.6639C57.3707 55.9479 56.9855 55.1072 56.7361 54.1418C56.4865 53.1766 56.351 52.1297 56.3293 51.0016ZM69.6713 50.3508H56.3295C56.3943 49.1793 56.6113 48.1271 56.9801 47.1943C57.349 46.2613 57.8316 45.4641 58.4283 44.8025C59.0248 44.1408 59.7191 43.6365 60.5109 43.2893C61.3027 42.9422 62.1543 42.7686 63.0654 42.7686C64.1502 42.7686 65.1045 42.9693 65.9291 43.3707C66.7533 43.7721 67.4422 44.3199 67.9955 45.0141C68.5486 45.7082 68.9662 46.5164 69.2482 47.4383C69.5303 48.3604 69.6713 49.3312 69.6713 50.3508ZM83.827 47.4547H84.4777C84.4777 45.5889 83.9354 44.233 82.8508 43.3869C81.7658 42.5408 80.2906 42.1178 78.425 42.1178C77.3836 42.1178 76.5051 42.248 75.7891 42.5084C75.0732 42.7686 74.4875 43.1049 74.0318 43.517C73.5764 43.9291 73.251 44.3848 73.0557 44.8838C72.8604 45.3828 72.7627 45.8602 72.7627 46.3156C72.7627 47.2268 72.9254 47.9535 73.251 48.4959C73.5764 49.0383 74.0861 49.4613 74.7803 49.765C75.2576 49.9818 75.7998 50.1771 76.4074 50.351C77.0148 50.5244 77.7199 50.7088 78.5227 50.9039C79.2385 51.0777 79.9436 51.2512 80.6379 51.4246C81.332 51.5982 81.9449 51.8314 82.4764 52.1242C83.008 52.4172 83.4418 52.7914 83.7781 53.2471C84.1143 53.7025 84.2824 54.2992 84.2824 55.0367C84.2824 55.7527 84.1145 56.3602 83.7781 56.859C83.4447 57.3554 83.0058 57.7721 82.4928 58.0795C81.9721 58.3939 81.3916 58.6217 80.7518 58.7627C80.1117 58.9037 79.4881 58.9742 78.8807 58.9742C76.9064 58.9742 75.3932 58.535 74.341 57.6564C73.2889 56.7777 72.7629 55.3947 72.7629 53.5072H72.1119C72.1119 55.6117 72.6814 57.152 73.8203 58.1283C74.9594 59.1045 76.6461 59.5926 78.8807 59.5926C79.5965 59.5926 80.3178 59.5111 81.0447 59.3484C81.7713 59.1857 82.4223 58.9201 82.9971 58.5512C83.567 58.1875 84.0457 57.6976 84.3963 57.1195C84.7543 56.5336 84.9334 55.8178 84.9334 54.9717C84.9334 54.1689 84.776 53.5182 84.4615 53.0191C84.1469 52.5203 83.7348 52.108 83.2248 51.7826C82.715 51.4572 82.1402 51.2023 81.5002 51.018C80.8566 50.8325 80.2111 50.6535 79.5639 50.4809C78.7674 50.2719 77.9701 50.0658 77.1721 49.8627C76.4889 49.6891 75.8543 49.483 75.2686 49.2443C74.7045 49.0057 74.2543 48.6641 73.918 48.2193C73.5816 47.7746 73.4137 47.14 73.4137 46.3156C73.4137 46.1639 73.457 45.8926 73.5438 45.5021C73.6305 45.1115 73.8367 44.7156 74.1621 44.3143C74.4875 43.9131 74.9863 43.5551 75.659 43.2404C76.3314 42.926 77.2535 42.7686 78.425 42.7686C79.2277 42.7686 79.9598 42.8555 80.6215 43.0289C81.2832 43.2025 81.8527 43.4791 82.3299 43.8588C82.8072 44.2385 83.176 44.7211 83.4363 45.3068C83.6967 45.8928 83.827 46.6086 83.827 47.4547V47.4547ZM98.8936 47.4547H99.5443C99.5443 45.5889 99.0021 44.233 97.9174 43.3869C96.8326 42.5408 95.3574 42.1178 93.4916 42.1178C92.4504 42.1178 91.5717 42.248 90.8559 42.5084C90.1398 42.7686 89.5541 43.1049 89.0986 43.517C88.643 43.9291 88.3176 44.3848 88.1223 44.8838C87.927 45.3828 87.8295 45.8602 87.8295 46.3156C87.8295 47.2268 87.9922 47.9535 88.3178 48.4959C88.643 49.0383 89.1529 49.4613 89.8471 49.765C90.3244 49.9818 90.8666 50.1771 91.474 50.351C92.0814 50.5244 92.7865 50.7088 93.5893 50.9039C94.3053 51.0777 95.0103 51.2512 95.7045 51.4246C96.3988 51.5982 97.0115 51.8314 97.5432 52.1242C98.0746 52.4172 98.5086 52.7914 98.8447 53.2471C99.1811 53.7025 99.3492 54.2992 99.3492 55.0367C99.3492 55.7527 99.1811 56.3602 98.8447 56.859C98.5113 57.3554 98.0725 57.7721 97.5596 58.0795C97.0387 58.3939 96.4584 58.6217 95.8184 58.7627C95.1785 58.9037 94.5547 58.9742 93.9473 58.9742C91.973 58.9742 90.46 58.535 89.4078 57.6564C88.3555 56.7777 87.8295 55.3947 87.8295 53.5072H87.1787C87.1787 55.6117 87.748 57.152 88.8871 58.1283C90.026 59.1045 91.7127 59.5926 93.9473 59.5926C94.6633 59.5926 95.3846 59.5111 96.1113 59.3484C96.8379 59.1857 97.4889 58.9201 98.0639 58.5512C98.6338 58.1875 99.1125 57.6976 99.4631 57.1195C99.8211 56.5336 100 55.8178 100 54.9717C100 54.1689 99.8428 53.5182 99.5281 53.0191C99.2137 52.5203 98.8016 52.108 98.2916 51.7826C97.7818 51.4572 97.2068 51.2023 96.567 51.018C95.9234 50.8325 95.2779 50.6535 94.6307 50.4809C93.8342 50.2719 93.0369 50.0658 92.2389 49.8627C91.5555 49.6891 90.9209 49.483 90.3352 49.2443C89.7711 49.0057 89.3209 48.6641 88.9848 48.2193C88.6484 47.7746 88.4803 47.14 88.4803 46.3156C88.4803 46.1639 88.5236 45.8926 88.6105 45.5021C88.6973 45.1115 88.9035 44.7156 89.2287 44.3143C89.5541 43.9131 90.0531 43.5551 90.7256 43.2404C91.3982 42.926 92.3201 42.7686 93.4918 42.7686C94.2945 42.7686 95.0266 42.8555 95.6883 43.0289C96.35 43.2025 96.9193 43.4791 97.3967 43.8588C97.874 44.2385 98.2428 44.7211 98.5031 45.3068C98.7635 45.8928 98.8937 46.6086 98.8937 47.4547H98.8936Z" fill="#222222"/>
</svg>
