<svg width="100" height="100" viewBox="0 0 100 100" fill="none" xmlns="http://www.w3.org/2000/svg">
<path fill-rule="evenodd" clip-rule="evenodd" d="M91.0352 23.0668C88.9635 18.885 86.062 15.6615 82.3304 13.3962C78.6709 11.1746 74.5155 10.0429 69.8642 10.0012V10H69.6038H69.5891H40.3322V15.4241H40.3323V17.5132C40.3323 18.3309 40.6571 19.1151 41.2352 19.6932C41.8134 20.2714 42.5976 20.5962 43.4152 20.5962L49.2173 20.6155H49.4482H69.5891C71.4459 20.6155 73.0732 21.0293 74.4711 21.8571C79.7585 24.5537 83.5119 31.3655 83.5119 39.3425C83.5119 49.6823 77.2058 58.0644 69.4268 58.0644C61.6478 58.0644 55.3417 49.6823 55.3417 39.3425C55.3417 39.1864 55.3431 39.0306 55.346 38.8754H43.4135C42.5958 38.8754 41.8117 39.2002 41.2335 39.7784C40.6553 40.3565 40.3305 41.1407 40.3305 41.9584V64.8567C40.3305 68.3002 39.6365 70.9795 38.2484 72.8949C38.2168 72.9384 38.185 72.9814 38.1529 73.0239C36.4359 75.7813 33.8392 77.5386 30.9333 77.5386C25.9247 77.5386 21.8349 72.3183 21.5845 65.754C21.5541 65.7531 21.5237 65.7526 21.4932 65.7526H9.08777C8.65808 65.7522 8.23304 65.8415 7.83989 66.0149C7.44674 66.1883 7.09416 66.4419 6.80473 66.7595C6.51531 67.0771 6.29542 67.4517 6.15918 67.8592C6.02293 68.2667 5.97332 68.6982 6.01354 69.126C6.60727 75.243 8.87722 80.0926 12.8234 83.6748C17.4613 87.8916 23.9626 90 32.3274 90C37.3163 90 41.8405 88.9455 45.8998 86.8365C49.9591 84.7276 53.122 81.7583 55.3885 77.9288C57.3108 74.6813 58.4189 71.0525 58.7129 67.0421C58.7232 66.866 58.7748 66.6947 58.8635 66.5422C58.9522 66.3897 59.0755 66.2602 59.2235 66.1641C59.3715 66.0681 59.5401 66.0082 59.7155 65.9893C59.8909 65.9704 60.0683 65.993 60.2334 66.0553C63.1052 67.1833 66.2547 67.7478 69.6818 67.749C74.4643 67.749 78.7295 66.6105 82.4774 64.3336C86.2253 62.0566 89.114 58.8074 91.1437 54.586C93.171 50.3657 94.1847 45.5149 94.1847 40.0337V37.4459C94.1555 32.0428 93.1057 27.2498 91.0352 23.0668ZM48 36C51.3137 36 54 33.3137 54 30C54 26.6863 51.3137 24 48 24C44.6863 24 42 26.6863 42 30C42 33.3137 44.6863 36 48 36Z" fill="url(#paint0_linear_22_267)"/>
<defs>
<linearGradient id="paint0_linear_22_267" x1="-68.144" y1="691.92" x2="113.081" y2="618.803" gradientUnits="userSpaceOnUse">
<stop stop-color="#01A4BA"/>
<stop offset="1" stop-color="#39B54A"/>
</linearGradient>
</defs>
</svg>
