<svg width="1139" height="203" viewBox="0 0 1139 203" fill="none" xmlns="http://www.w3.org/2000/svg">
<path d="M554 156H1030.41L1056.67 125H1124" stroke="black"/>
<path d="M8.5 121H928.5L962.5 87H1077" stroke="black" stroke-width="2"/>
<path d="M530.5 120.5L580 71H753.5" stroke="black" stroke-width="2"/>
<path d="M99.5 95H287L337 45H964" stroke="black"/>
<path d="M29 152H370.5L413.5 195H1070" stroke="black"/>
<circle cx="971" cy="45" r="8" fill="#061308"/>
<circle cx="760" cy="71" r="8" fill="#061308"/>
<circle cx="852" cy="8" r="8" fill="#061308"/>
<circle cx="93" cy="95" r="8" fill="#061308"/>
<circle cx="8" cy="121" r="8" fill="#061308"/>
<circle cx="22" cy="152" r="8" fill="#061308"/>
<circle cx="1084" cy="87" r="8" fill="#061308"/>
<circle cx="1131" cy="125" r="8" fill="#061308"/>
<circle cx="1077" cy="195" r="8" fill="#061308"/>
<path d="M695.5 45L732.5 8H848" stroke="black"/>
</svg>
